<?xml version="1.0" encoding="UTF-8" standalone="no"?><!DOCTYPE svg PUBLIC "-//W3C//DTD SVG 1.1//EN" "http://www.w3.org/Graphics/SVG/1.1/DTD/svg11.dtd"><svg width="100%" height="100%" viewBox="0 0 1230 492" version="1.1" xmlns="http://www.w3.org/2000/svg" xmlns:xlink="http://www.w3.org/1999/xlink" xml:space="preserve" xmlns:serif="http://www.serif.com/" style="fill-rule:evenodd;clip-rule:evenodd;stroke-linejoin:round;stroke-miterlimit:2;"><rect id="Artboard1" x="-243.056" y="-1188.89" width="1725" height="3066.67" style="fill:none;"/><g id="Artboard11" serif:id="Artboard1"><g><path d="M180.076,120.532l-20.473,25.532c-15.355,-13.261 -31.657,-19.297 -48.908,-18.11c-6.066,0.594 -11.563,2.078 -16.492,4.453c-4.55,2.177 -8.341,5.146 -11.374,8.907c-4.36,5.541 -6.35,12.271 -5.971,20.187c0.568,3.167 1.943,6.136 4.123,8.907c2.18,2.771 4.455,5.047 6.824,6.828c2.37,1.781 5.829,3.612 10.379,5.492c4.549,1.881 8.293,3.266 11.232,4.157c2.938,0.89 7.25,2.226 12.937,4.007c9.289,2.771 16.35,4.998 21.184,6.68c4.834,1.683 10.853,4.453 18.056,8.313c7.204,3.859 12.512,7.966 15.924,12.32c3.412,4.355 6.255,10.144 8.53,17.368c2.275,7.224 3.033,15.586 2.275,25.086l0,0.297c-1.327,10.49 -5.118,19.891 -11.374,28.203c-7.582,9.698 -17.819,16.725 -30.709,21.079c-12.322,3.958 -25.592,4.948 -39.809,2.969c-24.644,-3.167 -48.055,-14.053 -70.234,-32.657l19.904,-25.829c17.44,14.449 35.449,22.86 54.026,25.235c9.858,1.386 18.673,0.792 26.445,-1.781c6.824,-2.177 11.942,-5.542 15.355,-10.094c2.464,-3.167 3.98,-6.828 4.549,-10.985c0.19,-3.958 -0.521,-7.57 -2.133,-10.836c-1.611,-3.265 -3.506,-5.937 -5.686,-8.015c-2.18,-2.079 -5.593,-4.157 -10.237,-6.235c-4.644,-2.078 -8.483,-3.661 -11.516,-4.75c-3.033,-1.088 -7.535,-2.523 -13.507,-4.305c-5.971,-1.781 -10.473,-3.166 -13.506,-4.156c-3.033,-0.99 -7.251,-2.523 -12.654,-4.602c-5.402,-2.078 -9.573,-4.007 -12.511,-5.789c-2.938,-1.781 -6.398,-4.156 -10.379,-7.125c-3.98,-2.969 -7.061,-6.086 -9.241,-9.351c-2.18,-3.266 -4.218,-7.225 -6.113,-11.876c-1.896,-4.651 -3.223,-9.648 -3.981,-14.992l-0,-1.188c-1.138,-16.823 3.317,-31.568 13.364,-44.234c5.877,-7.323 13.27,-13.162 22.179,-17.516c8.72,-4.157 18.009,-6.631 27.866,-7.422c7.773,-0.594 15.639,-0.099 23.601,1.484c7.962,1.583 16.113,4.404 24.454,8.461c8.341,4.058 16.208,9.352 23.601,15.883Z" style="fill:#fc2b2b;fill-rule:nonzero;stroke:#f00;stroke-opacity:0;stroke-width:1.39px;"/><path d="M230.974,260.214c-9.288,-16.724 -13.933,-34.983 -13.933,-54.774c0,-19.792 4.645,-38.05 13.933,-54.775c9.289,-16.724 21.99,-29.984 38.103,-39.781c16.113,-9.797 33.648,-14.696 52.604,-14.696c14.218,0 27.771,2.87 40.662,8.61c12.89,5.739 24.027,13.508 33.411,23.305c9.383,9.797 16.824,21.424 22.321,34.883c5.497,13.458 8.246,27.61 8.246,42.454c0,22.562 -6.066,43.146 -18.198,61.75l18.198,18.407l-21.895,23.75l-74.499,-75.407l21.895,-23.75l32.131,32.656c6.446,-11.479 9.668,-23.948 9.668,-37.406c0,-20.782 -7.014,-38.496 -21.042,-53.142c-14.027,-14.646 -30.993,-21.969 -50.898,-21.969c-19.904,0 -36.87,7.323 -50.898,21.969c-14.028,14.646 -21.042,32.36 -21.042,53.142c0,20.781 7.014,38.495 21.042,53.141c14.028,14.646 30.994,21.969 50.898,21.969c3.033,-0 5.971,-0.198 8.815,-0.594l27.582,27.907c-11.753,4.552 -23.886,6.828 -36.397,6.828c-18.956,-0 -36.491,-4.899 -52.604,-14.696c-16.113,-9.797 -28.814,-23.057 -38.103,-39.781Z" style="fill:#fc2b2b;fill-rule:nonzero;stroke:#f00;stroke-opacity:0;stroke-width:1.39px;"/><path d="M599.205,101.532l-0,140.127c-0,20.781 -7.062,38.545 -21.184,53.29c-14.123,14.744 -31.136,22.117 -51.041,22.117c-19.904,-0 -36.918,-7.373 -51.04,-22.117c-14.123,-14.745 -21.184,-32.509 -21.184,-53.29l-0,-140.127l31.563,-0l-0,140.127c-0,11.677 3.98,21.672 11.942,29.985c7.962,8.312 17.535,12.468 28.719,12.468c11.185,0 20.758,-4.156 28.719,-12.468c7.962,-8.313 11.943,-18.308 11.943,-29.985l0,-140.127l31.563,-0Z" style="fill:#fc2b2b;fill-rule:nonzero;stroke:#f00;stroke-opacity:0;stroke-width:1.39px;"/><path d="M797.111,309.347l-20.473,-49.876l-94.119,0l-20.189,49.876l-34.691,0l47.202,-115.783l34.691,0l-13.08,32.063l66.537,0c-31.847,-77.98 -48.718,-119.345 -50.614,-124.095l34.691,-0l84.735,207.815l-34.69,0Z" style="fill:#fc2b2b;fill-rule:nonzero;stroke:#f00;stroke-opacity:0;stroke-width:1.39px;"/><path d="M1017.76,158.83c0.758,17.021 -4.55,31.766 -15.924,44.235c-11.374,12.468 -25.307,18.703 -41.799,18.703l-68.243,-0l-0,87.579l-31.563,0l-0,-120.236l100.09,0c7.204,0 13.365,-2.672 18.483,-8.016c5.118,-5.343 7.677,-11.776 7.677,-19.297c0,-7.521 -2.559,-13.953 -7.677,-19.297c-5.118,-5.344 -11.279,-8.016 -18.483,-8.016l-100.09,0l-0,-32.953l99.806,-0c15.355,-0 28.577,5.542 39.667,16.625c11.089,11.084 17.108,24.542 18.056,40.376l-0,0.297Z" style="fill:#fc2b2b;fill-rule:nonzero;stroke:#f00;stroke-opacity:0;stroke-width:1.39px;"/><path d="M1191.22,309.347l-145.018,0l0,-207.815l31.563,-0l0,174.862l113.455,-0l-0,32.953Z" style="fill:#fc2b2b;fill-rule:nonzero;stroke:#f00;stroke-opacity:0;stroke-width:1.39px;"/></g><path d="M61.986,454.418l-0,-52.612l-27.206,-0l0,-7.04l65.451,0l-0,7.04l-27.318,-0l-0,52.612l-10.927,0Z" style="fill:#fc2b2b;fill-rule:nonzero;stroke:#f00;stroke-opacity:0;stroke-width:1.39px;"/><path d="M134.39,454.418l-0,-59.652l59.705,0l0,7.04l-48.778,-0l0,18.27l45.68,-0l0,6.998l-45.68,0l0,20.305l50.693,-0l0,7.039l-61.62,0Z" style="fill:#fc2b2b;fill-rule:nonzero;stroke:#f00;stroke-opacity:0;stroke-width:1.39px;"/><path d="M292.747,433.503l10.927,1.994c-2.29,6.484 -6.411,11.427 -12.363,14.832c-5.952,3.404 -13.227,5.106 -21.826,5.106c-8.9,0 -16.138,-1.308 -21.714,-3.926c-5.576,-2.618 -9.819,-6.409 -12.729,-11.373c-2.911,-4.964 -4.366,-10.295 -4.366,-15.991c0,-6.212 1.643,-11.631 4.929,-16.256c3.285,-4.625 7.961,-8.138 14.025,-10.539c6.064,-2.4 12.739,-3.601 20.024,-3.601c8.261,0 15.208,1.519 20.84,4.557c5.633,3.039 9.557,7.311 11.772,12.818l-10.758,1.831c-1.915,-4.34 -4.694,-7.501 -8.336,-9.481c-3.643,-1.98 -8.224,-2.97 -13.744,-2.97c-6.346,-0 -11.65,1.098 -15.912,3.296c-4.262,2.197 -7.256,5.147 -8.984,8.85c-1.727,3.703 -2.591,7.521 -2.591,11.454c0,5.073 1.024,9.501 3.07,13.285c2.047,3.785 5.229,6.612 9.547,8.484c4.319,1.872 8.994,2.808 14.026,2.808c6.12,-0 11.302,-1.275 15.545,-3.825c4.244,-2.55 7.116,-6.334 8.618,-11.353Z" style="fill:#fc2b2b;fill-rule:nonzero;stroke:#f00;stroke-opacity:0;stroke-width:1.39px;"/><path d="M340.199,454.418l0,-59.652l10.927,0l0,24.496l42.921,-0l-0,-24.496l10.927,0l-0,59.652l-10.927,0l-0,-28.117l-42.921,0l0,28.117l-10.927,0Z" style="fill:#fc2b2b;fill-rule:nonzero;stroke:#f00;stroke-opacity:0;stroke-width:1.39px;"/><path d="M445.779,454.418l0,-59.652l11.209,0l43.371,46.835l-0,-46.835l10.477,0l-0,59.652l-11.209,0l-43.371,-46.875l-0,46.875l-10.477,0Z" style="fill:#fc2b2b;fill-rule:nonzero;stroke:#f00;stroke-opacity:0;stroke-width:1.39px;"/><path d="M548.599,425.365c0,-9.901 3.68,-17.652 11.04,-23.254c7.36,-5.602 16.86,-8.402 28.501,-8.402c7.623,-0 14.495,1.315 20.615,3.946c6.121,2.632 10.787,6.301 13.997,11.007c3.211,4.707 4.816,10.044 4.816,16.012c0,6.049 -1.69,11.461 -5.069,16.235c-3.38,4.774 -8.167,8.389 -14.363,10.844c-6.196,2.455 -12.88,3.682 -20.052,3.682c-7.773,0 -14.72,-1.356 -20.841,-4.069c-6.12,-2.712 -10.758,-6.415 -13.912,-11.108c-3.154,-4.693 -4.732,-9.657 -4.732,-14.893Zm11.266,0.122c-0,7.189 2.675,12.852 8.026,16.989c5.351,4.136 12.063,6.205 20.136,6.205c8.224,-0 14.992,-2.089 20.306,-6.266c5.313,-4.178 7.97,-10.105 7.97,-17.782c-0,-4.856 -1.136,-9.094 -3.408,-12.716c-2.272,-3.621 -5.595,-6.429 -9.969,-8.423c-4.375,-1.993 -9.285,-2.99 -14.73,-2.99c-7.735,-0 -14.391,1.919 -19.967,5.757c-5.576,3.839 -8.364,10.248 -8.364,19.226Z" style="fill:#fc2b2b;fill-rule:nonzero;stroke:#f00;stroke-opacity:0;stroke-width:1.39px;"/><path d="M663.924,454.418l-0,-59.652l10.927,0l0,52.613l40.667,-0l0,7.039l-51.594,0Z" style="fill:#fc2b2b;fill-rule:nonzero;stroke:#f00;stroke-opacity:0;stroke-width:1.39px;"/><path d="M747.931,425.365c0,-9.901 3.68,-17.652 11.04,-23.254c7.36,-5.602 16.86,-8.402 28.501,-8.402c7.623,-0 14.494,1.315 20.615,3.946c6.121,2.632 10.786,6.301 13.997,11.007c3.211,4.707 4.816,10.044 4.816,16.012c-0,6.049 -1.69,11.461 -5.069,16.235c-3.38,4.774 -8.168,8.389 -14.363,10.844c-6.196,2.455 -12.88,3.682 -20.052,3.682c-7.773,0 -14.72,-1.356 -20.841,-4.069c-6.121,-2.712 -10.758,-6.415 -13.912,-11.108c-3.155,-4.693 -4.732,-9.657 -4.732,-14.893Zm11.265,0.122c0,7.189 2.676,12.852 8.027,16.989c5.351,4.136 12.063,6.205 20.136,6.205c8.224,-0 14.992,-2.089 20.306,-6.266c5.313,-4.178 7.97,-10.105 7.97,-17.782c-0,-4.856 -1.136,-9.094 -3.408,-12.716c-2.272,-3.621 -5.595,-6.429 -9.97,-8.423c-4.374,-1.993 -9.284,-2.99 -14.729,-2.99c-7.735,-0 -14.391,1.919 -19.967,5.757c-5.577,3.839 -8.365,10.248 -8.365,19.226Z" style="fill:#fc2b2b;fill-rule:nonzero;stroke:#f00;stroke-opacity:0;stroke-width:1.39px;"/><path d="M902.346,431.021l-0,-6.998l34.978,-0.041l-0,22.135c-5.37,3.093 -10.908,5.419 -16.616,6.979c-5.708,1.56 -11.566,2.339 -17.574,2.339c-8.111,0 -15.48,-1.254 -22.108,-3.763c-6.627,-2.51 -11.631,-6.138 -15.01,-10.885c-3.38,-4.747 -5.07,-10.05 -5.07,-15.91c0,-5.805 1.681,-11.224 5.041,-16.256c3.361,-5.032 8.196,-8.768 14.504,-11.21c6.309,-2.441 13.575,-3.662 21.798,-3.662c5.971,0 11.369,0.699 16.194,2.096c4.825,1.397 8.608,3.343 11.35,5.839c2.741,2.495 4.825,5.751 6.252,9.765l-9.857,1.954c-1.239,-3.039 -2.779,-5.426 -4.619,-7.162c-1.84,-1.736 -4.468,-3.126 -7.886,-4.171c-3.417,-1.044 -7.209,-1.566 -11.377,-1.566c-4.995,-0 -9.313,0.549 -12.955,1.648c-3.643,1.098 -6.581,2.543 -8.815,4.333c-2.234,1.791 -3.971,3.757 -5.21,5.9c-2.103,3.69 -3.155,7.691 -3.155,12.004c0,5.317 1.268,9.765 3.802,13.346c2.535,3.581 6.224,6.239 11.068,7.975c4.844,1.737 9.989,2.605 15.434,2.605c4.731,-0 9.35,-0.658 13.856,-1.974c4.506,-1.315 7.923,-2.719 10.251,-4.211l0,-11.109l-24.276,0Z" style="fill:#fc2b2b;fill-rule:nonzero;stroke:#f00;stroke-opacity:0;stroke-width:1.39px;"/><rect x="978.017" y="394.766" width="10.927" height="59.652" style="fill:#fc2b2b;fill-rule:nonzero;stroke:#f00;stroke-opacity:0;stroke-width:1.39px;"/><path d="M1031.16,454.418l-0,-59.652l59.705,0l-0,7.04l-48.778,-0l-0,18.27l45.68,-0l0,6.998l-45.68,0l-0,20.305l50.693,-0l0,7.039l-61.62,0Z" style="fill:#fc2b2b;fill-rule:nonzero;stroke:#f00;stroke-opacity:0;stroke-width:1.39px;"/><path d="M1126.88,435.253l10.307,-0.651c0.489,2.984 1.624,5.432 3.408,7.345c1.784,1.912 4.553,3.458 8.308,4.638c3.755,1.18 7.98,1.77 12.673,1.77c4.169,0 7.848,-0.447 11.04,-1.342c3.192,-0.896 5.567,-2.123 7.125,-3.683c1.559,-1.56 2.338,-3.262 2.338,-5.107c-0,-1.871 -0.751,-3.506 -2.253,-4.903c-1.502,-1.397 -3.98,-2.57 -7.435,-3.519c-2.216,-0.624 -7.116,-1.594 -14.701,-2.91c-7.585,-1.315 -12.899,-2.556 -15.94,-3.723c-3.943,-1.492 -6.881,-3.343 -8.815,-5.554c-1.934,-2.211 -2.901,-4.686 -2.901,-7.426c0,-3.011 1.183,-5.825 3.549,-8.443c2.365,-2.618 5.82,-4.605 10.363,-5.961c4.544,-1.357 9.595,-2.035 15.152,-2.035c6.121,0 11.519,0.712 16.194,2.136c4.675,1.425 8.27,3.52 10.786,6.287c2.516,2.767 3.868,5.9 4.056,9.399l-10.477,0.57c-0.563,-3.77 -2.469,-6.619 -5.717,-8.545c-3.248,-1.926 -8.045,-2.889 -14.391,-2.889c-6.609,0 -11.425,0.875 -14.448,2.625c-3.023,1.749 -4.534,3.859 -4.534,6.327c-0,2.143 1.07,3.906 3.21,5.29c2.103,1.383 7.595,2.801 16.476,4.252c8.88,1.451 14.973,2.719 18.277,3.804c4.807,1.601 8.355,3.629 10.646,6.084c2.291,2.455 3.436,5.282 3.436,8.483c-0,3.174 -1.258,6.165 -3.774,8.973c-2.516,2.807 -6.13,4.991 -10.843,6.551c-4.712,1.56 -10.016,2.339 -15.912,2.339c-7.472,0 -13.734,-0.786 -18.784,-2.36c-5.051,-1.573 -9.012,-3.94 -11.885,-7.1c-2.873,-3.16 -4.384,-6.734 -4.534,-10.722Z" style="fill:#fc2b2b;fill-rule:nonzero;stroke:#f00;stroke-opacity:0;stroke-width:1.39px;"/></g></svg>